<?xml version="1.0" encoding="UTF-8" standalone="no"?>
<!-- Created with Inkscape (http://www.inkscape.org/) -->

<svg
   width="59.684647mm"
   height="60.451401mm"
   viewBox="0 0 59.684647 60.451401"
   version="1.1"
   id="svg1"
   inkscape:export-filename="countdown icon dark.png"
   inkscape:export-xdpi="96"
   inkscape:export-ydpi="96"
   xmlns:inkscape="http://www.inkscape.org/namespaces/inkscape"
   xmlns:sodipodi="http://sodipodi.sourceforge.net/DTD/sodipodi-0.dtd"
   xmlns="http://www.w3.org/2000/svg"
   xmlns:svg="http://www.w3.org/2000/svg">
  <sodipodi:namedview
     id="namedview1"
     pagecolor="#ffffff"
     bordercolor="#000000"
     borderopacity="0.25"
     inkscape:showpageshadow="2"
     inkscape:pageopacity="0.0"
     inkscape:pagecheckerboard="0"
     inkscape:deskcolor="#d1d1d1"
     inkscape:document-units="mm">
    <inkscape:page
       x="0"
       y="-4.4822158e-22"
       width="59.684647"
       height="60.451401"
       id="page2"
       margin="0"
       bleed="0" />
  </sodipodi:namedview>
  <defs
     id="defs1" />
  <g
     inkscape:label="Layer 1"
     inkscape:groupmode="layer"
     id="layer1"
     transform="translate(-91.810419,-59.531254)">
    <path
       d="m 109.79528,70.337056 q 3.49249,-1.693328 7.30248,-2.434159 3.80999,-0.740831 7.51414,-0.317499 3.80999,0.423332 7.30248,2.010827 3.59832,1.587495 6.56165,4.444986 2.43416,2.434159 4.23332,5.926648 1.79916,3.386656 2.64582,6.667479 1.79916,5.820815 0.52917,11.747463 -1.27,5.926649 -4.33916,11.006629 -1.48166,2.32833 -3.70415,4.23332 -2.11666,1.79916 -4.55082,2.96333 -3.17499,1.48166 -6.87915,2.01082 -3.70415,0.635 -7.19664,0.3175 -6.34998,-0.3175 -11.2183,-3.17499 -4.76248,-2.85749 -7.72581,-7.30247 -2.857489,-4.44499 -3.809986,-10.054139 -0.846664,-5.714982 0.740831,-11.64163 1.693328,-6.34998 4.868315,-10.265801 3.28083,-4.021654 7.72581,-6.138314 z m 3.17499,14.181622 q -1.58749,1.481662 -2.43416,3.704155 -0.84666,2.222493 -1.05833,4.656652 -0.21166,2.328326 0.3175,4.762485 0.635,2.328326 1.905,4.23332 1.05833,1.5875 3.80998,2.64583 2.75166,1.05833 5.71499,1.26999 3.38665,0.21167 5.92665,-1.79916 2.53999,-2.11666 3.80998,-5.185817 1.37583,-3.069157 1.27,-6.667479 -0.10583,-3.598322 -1.90499,-6.561646 -1.27,-2.11666 -3.59833,-3.069157 -2.22249,-1.05833 -4.76248,-1.05833 -2.43416,-0.105833 -4.86832,0.740831 -2.43416,0.740831 -4.12749,2.328326 z"
       id="text1-2"
       style="font-size:105.833px;font-family:Jua;-inkscape-font-specification:Jua;fill:#000055;stroke-width:0.264583"
       aria-label="o" />
    <path
       d="m 142.15344,63.314261 c 8.62368,-1.6e-4 12.62472,10.70208 6.11591,16.35921 -2.87908,-5.66754 -7.48504,-10.27331 -13.15269,-13.15216 1.70793,-1.96525 4.22877,-3.20705 7.03678,-3.20705 z"
       id="path11"
       sodipodi:nodetypes="cccc"
       style="fill:#000055;fill-opacity:1;stroke-width:3.7291" />
    <path
       d="m 101.56791,63.324081 c -5.313689,-0.24809 -9.757485,3.99311 -9.757495,9.31261 0,2.80802 1.241804,5.32885 3.207022,7.03678 2.879062,-5.66754 7.484993,-10.27331 13.152613,-13.15216 -1.67135,-1.92317 -4.05698,-3.07846 -6.60214,-3.19723 z"
       id="path9"
       sodipodi:nodetypes="csccc"
       style="fill:#000055;fill-opacity:1;stroke-width:3.7291" />
    <rect
       style="fill:#000055;fill-opacity:1;stroke-width:0.264583"
       id="rect14"
       width="7.9705734"
       height="3.9852867"
       x="-181.44691"
       y="27.111572"
       ry="1.9926434"
       transform="rotate(-130.45084)" />
    <rect
       style="fill:#000055;fill-opacity:1;stroke-width:0.264583"
       id="rect14-8"
       width="7.9705729"
       height="3.9852865"
       x="-12.781982"
       y="155.15802"
       ry="1.9926432"
       transform="rotate(-45.420823)" />
    <rect
       style="fill:#000055;fill-opacity:1;stroke-width:0.264583"
       id="rect15"
       width="16.20573"
       height="3.8364582"
       x="113.65334"
       y="59.53125"
       ry="1.9182291" />
    <rect
       style="fill:#000055;fill-opacity:1;stroke-width:0.264583"
       id="rect16"
       width="7.5736976"
       height="6.1515622"
       x="117.91985"
       y="62.357811"
       ry="0" />
    <rect
       style="fill:#000055;fill-opacity:1;stroke-width:0.272359"
       id="rect37"
       width="2.0703101"
       height="10.929311"
       x="144.07446"
       y="40.404083"
       ry="1.0351551"
       transform="rotate(18.882493)" />
    <rect
       style="fill:#000055;fill-opacity:1;stroke-width:0.264583"
       id="rect38"
       width="5.8465204"
       height="1.6370258"
       x="137.69832"
       y="54.895226"
       ry="0.81851292"
       transform="rotate(16.75106)" />
  </g>
</svg>
