<?xml version="1.0" encoding="UTF-8" standalone="no"?>
<!-- Created with Inkscape (http://www.inkscape.org/) -->

<svg
   width="497.2561mm"
   height="77.996605mm"
   viewBox="0 0 497.2561 77.996605"
   version="1.1"
   id="svg1"
   xml:space="preserve"
   inkscape:export-filename="countdown_white.png"
   inkscape:export-xdpi="99.906662"
   inkscape:export-ydpi="99.906662"
   xmlns:inkscape="http://www.inkscape.org/namespaces/inkscape"
   xmlns:sodipodi="http://sodipodi.sourceforge.net/DTD/sodipodi-0.dtd"
   xmlns="http://www.w3.org/2000/svg"
   xmlns:svg="http://www.w3.org/2000/svg"><sodipodi:namedview
     id="namedview1"
     pagecolor="#ffffff"
     bordercolor="#000000"
     borderopacity="0.25"
     inkscape:showpageshadow="2"
     inkscape:pageopacity="0.0"
     inkscape:pagecheckerboard="0"
     inkscape:deskcolor="#d1d1d1"
     inkscape:document-units="mm"><inkscape:page
       x="0"
       y="0"
       width="497.2561"
       height="77.996605"
       id="page2"
       margin="0"
       bleed="0" /></sodipodi:namedview><defs
     id="defs1" /><g
     inkscape:label="Layer 1"
     inkscape:groupmode="layer"
     id="layer1"
     transform="translate(-12.701986,-17.306768)"><path
       d="m 68.793475,74.928026 c 0.917219,2.046105 0.952497,4.056932 0.105833,6.032481 -0.846664,1.904994 -2.187215,3.668877 -4.021654,5.29165 -1.834439,1.622773 -3.951099,3.033879 -6.34998,4.23332 -2.328326,1.199441 -4.550819,2.046105 -6.667479,2.539992 -2.328326,0.493887 -4.797763,0.705553 -7.40831,0.634998 -2.539992,0 -5.115262,-0.317499 -7.725809,-0.952497 -2.539992,-0.564443 -5.044706,-1.411107 -7.514143,-2.539992 -2.398881,-1.199441 -4.621374,-2.645825 -6.667479,-4.339153 -2.469437,-2.046105 -4.409708,-4.480264 -5.820815,-7.302477 -1.340551,-2.892769 -2.328326,-5.961926 -2.963324,-9.207471 -0.634998,-3.245545 -0.987775,-6.491091 -1.05833,-9.736636 0,-3.316101 0.105833,-6.420535 0.317499,-9.313304 0.211666,-2.610547 0.740831,-5.326928 1.587495,-8.149141 0.846664,-2.822213 2.010827,-5.573871 3.492489,-8.254974 1.552217,-2.751658 3.386656,-5.29165 5.503316,-7.619976 2.187215,-2.328326 4.727207,-4.303875 7.619976,-5.926648 2.187215,-1.269996 4.621374,-2.11666 7.302477,-2.539992 2.751658,-0.493887 5.503316,-0.59972 8.254974,-0.317499 2.822213,0.211666 5.468038,0.811386 7.937475,1.799161 2.539992,0.917219 4.69193,2.187215 6.455813,3.809988 1.128885,0.987775 2.293048,2.363604 3.492489,4.127487 1.269996,1.763883 2.187215,3.563044 2.751658,5.397483 0.564443,1.834439 0.564443,3.563044 0,5.185817 -0.493887,1.552217 -1.904994,2.610547 -4.23332,3.17499 -0.987775,0.282221 -1.869716,0.352777 -2.645825,0.211666 -0.776109,-0.211666 -1.481662,-0.529165 -2.11666,-0.952497 -0.634998,-0.493887 -1.234718,-1.05833 -1.799161,-1.693328 -0.564443,-0.634998 -1.093608,-1.269996 -1.587495,-1.904994 -1.693328,-2.046105 -3.668877,-3.421934 -5.926648,-4.127487 -2.257771,-0.776109 -4.515541,-0.952497 -6.773312,-0.529165 -2.187215,0.352777 -4.268598,1.269996 -6.244147,2.751658 -1.904994,1.411107 -3.386656,3.245545 -4.444986,5.503316 -1.128885,2.398881 -2.046105,5.044706 -2.751658,7.937475 -0.634998,2.822213 -0.987775,5.714982 -1.05833,8.678306 -0.07055,2.892769 0.176388,5.714982 0.740831,8.46664 0.634998,2.751658 1.693328,5.185817 3.17499,7.302477 1.128885,1.693328 2.504714,3.069157 4.127487,4.127487 1.693328,1.05833 3.492489,1.799161 5.397483,2.222493 1.904994,0.423332 3.809988,0.493887 5.714982,0.211666 1.975549,-0.282221 3.880543,-0.917219 5.714982,-1.904994 0.564443,-0.282221 1.164163,-0.670276 1.799161,-1.164163 l 2.11666,-1.693328 c 0.705553,-0.564443 1.411107,-1.093608 2.11666,-1.587495 0.776109,-0.493887 1.587495,-0.846664 2.434159,-1.05833 1.269996,-0.423332 2.645825,-0.388054 4.127487,0.105833 1.552217,0.493887 2.71638,1.51694 3.492489,3.069157 z m 111.442195,-7.40831 c -0.14111,2.328326 -0.28223,4.69193 -0.42334,7.090811 -0.14111,2.328326 -0.52916,4.586097 -1.16416,6.773312 -0.56444,2.187215 -1.48166,4.162765 -2.75166,5.926648 -1.19944,1.763883 -2.92804,3.17499 -5.18581,4.23332 -1.97555,0.987775 -4.09221,1.65805 -6.34998,2.010827 -2.25777,0.423332 -4.51555,0.59972 -6.77332,0.529165 -2.25777,-0.07055 -4.44498,-0.423332 -6.56164,-1.05833 -2.11666,-0.564443 -4.02165,-1.375829 -5.71498,-2.434159 -1.69333,-1.05833 -3.06916,-2.434159 -4.12749,-4.127487 -1.05833,-1.693328 -1.905,-3.527767 -2.53999,-5.503316 -0.56445,-1.975549 -0.9525,-4.021654 -1.16417,-6.138314 -0.21167,-2.11666 -0.35278,-4.092209 -0.42333,-5.926648 -0.28222,-4.868318 -0.28222,-9.666081 0,-14.393288 V 51.4331 c 0,-1.199441 0.0706,-2.363604 0.21167,-3.492489 0.21167,-1.128885 0.52916,-2.151938 0.95249,-3.069157 0.42333,-0.987775 1.12889,-1.728606 2.11666,-2.222493 2.11666,-1.128885 4.05693,-1.199441 5.82082,-0.211666 1.83444,0.987775 2.92805,3.033879 3.28082,6.138314 0.21167,1.622773 0.28222,3.421934 0.21167,5.397483 0,1.975549 0.0705,3.77471 0.21166,5.397483 0.0706,2.398881 0.14112,5.009429 0.21167,7.831642 0.0705,2.751658 0.45861,5.221095 1.16416,7.40831 0.77611,2.187215 2.01083,3.845266 3.70416,4.974151 1.76388,1.05833 4.37443,1.093608 7.83164,0.105833 1.62277,-0.493887 2.6811,-1.728606 3.17499,-3.704155 0.56445,-1.975549 0.84667,-4.903596 0.84667,-8.784139 0,-1.693328 -0.0353,-3.563044 -0.10584,-5.609149 -0.0705,-2.046105 -0.10583,-4.056932 -0.10583,-6.032481 0,-2.046105 0.0353,-3.915821 0.10583,-5.609149 0.14111,-1.763883 0.35278,-3.104435 0.635,-4.021654 0.35278,-1.269996 1.09361,-2.222493 2.22249,-2.857491 1.12889,-0.634998 2.32833,-0.952497 3.59833,-0.952497 1.26999,-0.07055 2.46943,0.176388 3.59832,0.740831 1.12889,0.564443 1.90499,1.481662 2.32832,2.751658 0.42333,1.128885 0.70556,2.57527 0.84667,4.339153 0.21167,1.693328 0.35278,3.563044 0.42333,5.609149 0.0705,1.975549 0.0705,4.021654 0,6.138314 0,2.046105 -0.0353,3.986376 -0.10583,5.820815 z m 11.00661,-12.594127 c 0,-1.622773 -0.0353,-3.351378 -0.10583,-5.185817 0,-1.834439 0.3175,-3.492489 0.9525,-4.974151 0.56444,-1.340551 1.48166,-2.293048 2.75166,-2.857491 1.34055,-0.634998 2.64582,-0.776109 3.91582,-0.423332 1.26999,0.211666 2.25777,0.59972 2.96332,1.164163 0.70555,0.564443 1.19944,1.234718 1.48166,2.010827 0.35278,0.705553 0.56445,1.552217 0.635,2.539992 0.0705,0.917219 0.14111,1.834439 0.21167,2.751658 0.70555,-1.269996 1.58749,-2.293048 2.64582,-3.069157 1.05833,-0.776109 2.15194,-1.411107 3.28082,-1.904994 1.12889,-0.493887 2.18722,-0.846664 3.17499,-1.05833 1.05833,-0.211666 1.86972,-0.317499 2.43416,-0.317499 2.68111,0 5.32693,0.59972 7.93748,1.799161 2.6811,1.128885 4.90359,2.751658 6.66748,4.868318 0.98777,1.269996 1.7286,2.610547 2.22249,4.021654 0.56444,1.340551 0.95249,2.751658 1.16416,4.23332 0.28223,1.481662 0.45862,2.998602 0.52917,4.550819 0.0705,1.481662 0.14111,2.998602 0.21166,4.550819 0.35278,4.515541 0.35278,8.995805 0,13.440791 -0.0705,0.917219 -0.10583,1.975549 -0.10583,3.17499 0,1.199441 -0.10583,2.398881 -0.3175,3.598322 -0.14111,1.128885 -0.4586,2.151938 -0.95249,3.069157 -0.42333,0.846664 -1.16417,1.375829 -2.2225,1.587495 -1.48166,0.352777 -2.71638,0.423332 -3.70415,0.211666 -0.91722,-0.141111 -1.65805,-0.45861 -2.2225,-0.952497 -0.56444,-0.493887 -0.98777,-1.128885 -1.26999,-1.904994 -0.28222,-0.776109 -0.52916,-1.65805 -0.74083,-2.645825 -0.14111,-0.776109 -0.28222,-1.65805 -0.42333,-2.645825 -0.0706,-1.05833 -0.14112,-2.11666 -0.21167,-3.17499 0,-1.05833 -0.0353,-2.081382 -0.10583,-3.069157 v -2.857491 c 0,-1.340551 -0.0353,-2.822213 -0.10584,-4.444986 -0.0705,-1.622773 -0.0705,-3.139712 0,-4.550819 0,-3.316101 -0.88194,-5.820815 -2.64582,-7.514143 -1.69333,-1.763883 -4.02165,-2.504714 -6.98498,-2.222493 -2.25777,0.282221 -4.23332,1.199441 -5.92665,2.751658 -1.69333,1.481662 -2.50471,3.421934 -2.43416,5.820815 v 2.539992 c 0,0.776109 -0.0353,1.552217 -0.10583,2.328326 v 2.539992 3.069157 7.40831 c 0,2.539992 -0.3175,4.621374 -0.9525,6.244147 -0.56444,1.693328 -1.51694,2.857491 -2.85749,3.492489 -1.34055,0.634998 -2.92804,0.45861 -4.76248,-0.529165 -0.77611,-0.423332 -1.41111,-0.987775 -1.905,-1.693328 -0.42333,-0.776109 -0.7761,-1.587495 -1.05833,-2.434159 -0.21167,-0.846664 -0.35278,-1.693328 -0.42333,-2.539992 -0.0706,-0.917219 -0.14111,-1.763883 -0.21166,-2.539992 -0.21167,-2.328326 -0.35278,-4.480264 -0.42334,-6.455813 v -6.561646 z m 92.81538,-8.889972 c 0.56444,1.340551 0.59972,2.822213 0.10583,4.444986 -0.42333,1.622773 -1.23472,2.681103 -2.43416,3.17499 -0.635,0.282221 -1.48166,0.529165 -2.53999,0.740831 -1.05833,0.141111 -2.2225,0.282221 -3.49249,0.423332 -1.19944,0.141111 -2.39888,0.246944 -3.59832,0.317499 -1.19944,0.07055 -2.22249,0.105833 -3.06916,0.105833 0.0706,2.11666 0.14111,4.303875 0.21167,6.561646 0.0706,2.187215 0.14111,4.339153 0.21166,6.455813 0.0706,2.11666 0.10584,4.162765 0.10584,6.138314 0,1.904994 -0.0353,3.6336 -0.10584,5.185817 v 3.704155 c 0,1.340551 -0.10583,2.645825 -0.3175,3.915821 -0.14111,1.269996 -0.38805,2.398881 -0.74083,3.386656 -0.35277,0.917219 -0.88194,1.51694 -1.58749,1.799161 -2.18722,0.917219 -4.19805,1.164163 -6.03248,0.740831 -1.76389,-0.352777 -3.03388,-1.093608 -3.80999,-2.222493 -0.56445,-0.917219 -0.98778,-1.975549 -1.27,-3.17499 -0.28222,-1.269996 -0.49389,-2.539992 -0.635,-3.809988 -0.0706,-1.340551 -0.10583,-2.610547 -0.10583,-3.809988 0.0706,-1.269996 0.10583,-2.363604 0.10583,-3.280823 0.0706,-2.963324 0.10584,-6.314702 0.10584,-10.054135 0.0706,-3.809988 0.10583,-7.619976 0.10583,-11.429964 h -1.58749 -3.28083 c -1.26999,-0.07055 -2.57527,-0.176388 -3.91582,-0.317499 -1.26999,-0.211666 -2.46943,-0.45861 -3.59832,-0.740831 -1.12889,-0.352777 -1.94027,-0.846664 -2.43416,-1.481662 -0.77611,-0.917219 -1.26999,-1.904994 -1.48166,-2.963324 -0.14111,-1.05833 -0.0706,-2.046105 0.21166,-2.963324 0.35278,-0.987775 0.88195,-1.834439 1.5875,-2.539992 0.70555,-0.776109 1.51694,-1.269996 2.43416,-1.481662 1.26999,-0.352777 3.06915,-0.529165 5.39748,-0.529165 2.32833,-0.07055 4.51554,-0.07055 6.56165,0 -0.0706,-0.705553 -0.10584,-1.375829 -0.10584,-2.010827 0,-0.705553 -0.0353,-1.375829 -0.10583,-2.010827 -0.0705,-0.846664 -0.10583,-1.904994 -0.10583,-3.17499 0,-1.340551 0.0705,-2.645825 0.21166,-3.915821 0.21167,-1.340551 0.52917,-2.57527 0.9525,-3.704155 0.42333,-1.199441 1.02305,-2.11666 1.79916,-2.751658 1.05833,-0.846664 2.11666,-1.305274 3.17499,-1.375829 1.12889,-0.141111 2.15194,0 3.06916,0.423332 0.98777,0.423332 1.79916,1.05833 2.43416,1.904994 0.70555,0.776109 1.19944,1.65805 1.48166,2.645825 0.21167,0.846664 0.38806,1.869716 0.52917,3.069157 0.14111,1.128885 0.21166,2.328326 0.21166,3.598322 0.0706,1.269996 0.10583,2.539992 0.10583,3.809988 v 3.492489 h 1.05833 c 1.05833,0 2.29305,-0.03528 3.70416,-0.105833 1.41111,-0.07055 2.78694,-0.03528 4.12749,0.105833 1.41111,0.141111 2.6811,0.493887 3.80998,1.05833 1.12889,0.493887 1.97555,1.375829 2.54,2.645825 z m 35.66569,-27.304914 c 1.34055,-0.352777 2.50471,-0.388054 3.49249,-0.105833 1.05833,0.211666 1.94027,0.670276 2.64582,1.375829 0.77611,0.705553 1.34055,1.587495 1.69333,2.645825 0.42333,1.05833 0.635,2.222493 0.635,3.492489 0.0705,3.527767 0.0705,6.279425 0,8.254974 v 5.185817 32.490731 9.52497 c 0,2.539992 -0.14111,4.621374 -0.42333,6.244147 -0.21167,1.552217 -0.635,2.71638 -1.27,3.492489 -0.56444,0.776109 -1.44638,1.305274 -2.64583,1.587495 -1.19944,0.352777 -2.78693,0.529165 -4.76248,0.529165 h -7.19664 c -7.61998,0 -13.65246,-1.799161 -18.09745,-5.397483 -4.37443,-3.598322 -6.70275,-9.313304 -6.98498,-17.144946 -0.14111,-3.386656 0.28223,-6.491091 1.27,-9.313304 0.98777,-2.822213 2.43416,-5.221095 4.33915,-7.196644 1.97555,-2.046105 4.37444,-3.598322 7.19665,-4.656652 2.89277,-1.128885 6.17359,-1.65805 9.84247,-1.587495 h 5.82081 V 29.20817 25.927347 c 0,-1.128885 0.10583,-2.151938 0.3175,-3.069157 0.21167,-0.987775 0.635,-1.834439 1.27,-2.539992 0.63499,-0.705553 1.58749,-1.234718 2.85749,-1.587495 z m -18.41494,58.737315 c 1.48166,2.046105 4.16276,3.17499 8.0433,3.386656 0.77611,0.07055 1.51695,0.105833 2.2225,0.105833 0.70555,-0.07056 1.34055,-0.176388 1.90499,-0.317499 0.635,-0.07055 1.23472,-0.176388 1.79916,-0.317499 V 60.746404 c -2.46943,-0.423332 -4.7272,-0.670276 -6.77331,-0.740831 -1.97555,-0.141111 -3.9511,0.564443 -5.92665,2.11666 -1.05833,0.846664 -1.86971,1.940272 -2.43416,3.280823 -0.56444,1.269996 -0.88194,2.645825 -0.95249,4.127487 -0.0706,1.411107 0.0705,2.822213 0.42333,4.23332 0.35277,1.411107 0.91722,2.645825 1.69333,3.704155 z m 49.10646,-32.596564 c 2.32833,-1.128885 4.76249,-1.940272 7.30248,-2.434159 2.53999,-0.493887 5.0447,-0.59972 7.51414,-0.317499 2.53999,0.282221 4.97415,0.952497 7.30248,2.010827 2.39888,1.05833 4.58609,2.539992 6.56164,4.444986 1.62277,1.622773 3.03388,3.598322 4.23332,5.926648 1.19944,2.257771 2.08138,4.480264 2.64583,6.667479 1.19944,3.880543 1.37583,7.796364 0.52916,11.747463 -0.84666,3.951099 -2.29304,7.619976 -4.33915,11.006632 -0.98777,1.552217 -2.22249,2.963324 -3.70416,4.23332 -1.41111,1.199441 -2.92805,2.187215 -4.55082,2.963324 -2.11666,0.987775 -4.40971,1.65805 -6.87914,2.010827 -2.46944,0.423332 -4.86832,0.529165 -7.19664,0.317499 -4.23332,-0.211666 -7.97275,-1.269996 -11.2183,-3.17499 -3.17499,-1.904994 -5.75026,-4.339153 -7.72581,-7.302477 -1.90499,-2.963324 -3.17499,-6.314702 -3.80999,-10.054135 -0.56444,-3.809988 -0.3175,-7.690531 0.74083,-11.64163 1.12889,-4.23332 2.75166,-7.655254 4.86832,-10.265801 2.18721,-2.681103 4.76248,-4.727207 7.72581,-6.138314 z m 3.17499,14.181622 c -1.05833,0.987775 -1.86972,2.222493 -2.43416,3.704155 -0.56444,1.481662 -0.91722,3.033879 -1.05833,4.656652 -0.14111,1.552217 -0.0353,3.139712 0.3175,4.762485 0.42333,1.552217 1.05833,2.963324 1.90499,4.23332 0.70555,1.05833 1.97555,1.940272 3.80999,2.645825 1.83444,0.705553 3.73943,1.128885 5.71498,1.269996 2.25777,0.141111 4.23332,-0.45861 5.92665,-1.799161 1.69333,-1.411107 2.96332,-3.139712 3.80999,-5.185817 0.91722,-2.046105 1.34055,-4.268598 1.26999,-6.667479 -0.0705,-2.398881 -0.70555,-4.586097 -1.90499,-6.561646 -0.84667,-1.411107 -2.04611,-2.434159 -3.59832,-3.069157 -1.48166,-0.705553 -3.06916,-1.05833 -4.76249,-1.05833 -1.62277,-0.07055 -3.24554,0.176388 -4.86831,0.740831 -1.62277,0.493887 -2.9986,1.269996 -4.12749,2.328326 z M 457.20039,45.08312 c 0.63499,0.917219 0.84666,2.363604 0.63499,4.339153 -0.14111,1.904994 -0.49388,3.986376 -1.05833,6.244147 -0.56444,2.187215 -1.23471,4.374431 -2.01082,6.561646 -0.77611,2.11666 -1.41111,3.880543 -1.905,5.29165 -1.19944,3.245545 -2.25777,6.279425 -3.17499,9.101638 -0.91722,2.822213 -2.01083,5.926648 -3.28082,9.313304 l -1.27,2.963324 c -0.35277,0.987775 -0.81138,1.869716 -1.37582,2.645825 -0.49389,0.776109 -1.12889,1.411107 -1.905,1.904994 -0.70555,0.493887 -1.58749,0.740831 -2.64582,0.740831 -1.19944,0 -2.25777,-0.423332 -3.17499,-1.269996 -0.84667,-0.846664 -1.5875,-1.904994 -2.2225,-3.17499 -0.56444,-1.269996 -1.05833,-2.610547 -1.48166,-4.021654 -0.42333,-1.411107 -0.77611,-2.645825 -1.05833,-3.704155 -0.91722,-3.104435 -1.72861,-5.926648 -2.43416,-8.46664 -0.70555,-2.610547 -1.34055,-4.938873 -1.90499,-6.984978 -0.635,2.046105 -1.27,4.268598 -1.905,6.667479 -0.63499,2.398881 -1.44638,5.115262 -2.43415,8.149141 -0.28223,1.05833 -0.635,2.363604 -1.05833,3.915821 -0.42333,1.481662 -0.9525,2.892769 -1.5875,4.23332 -0.56444,1.340551 -1.30527,2.469437 -2.22249,3.386656 -0.84667,0.987775 -1.86972,1.411107 -3.06916,1.269996 -1.69333,-0.07055 -3.17499,-0.740831 -4.44499,-2.010827 -1.19944,-1.340551 -2.25777,-2.928046 -3.17499,-4.762485 -0.84666,-1.834439 -1.58749,-3.739433 -2.22249,-5.714982 -0.635,-1.975549 -1.16416,-3.704155 -1.58749,-5.185817 -0.56445,-1.904994 -1.23472,-4.021654 -2.01083,-6.34998 -0.77611,-2.328326 -1.55222,-4.69193 -2.32833,-7.090811 -0.70555,-2.469437 -1.37583,-4.903596 -2.01082,-7.302477 -0.635,-2.469437 -1.05833,-4.727207 -1.27,-6.773312 -0.14111,-1.340551 0.10583,-2.57527 0.74083,-3.704155 0.70555,-1.128885 1.5875,-1.904994 2.64583,-2.328326 1.12888,-0.493887 2.32832,-0.59972 3.59832,-0.317499 1.34055,0.282221 2.53999,1.128885 3.59832,2.539992 0.56444,0.705553 1.05833,1.587495 1.48166,2.645825 0.49389,1.05833 0.91722,2.222493 1.27,3.492489 0.35277,1.199441 0.70555,2.434159 1.05833,3.704155 0.35277,1.269996 0.70555,2.504714 1.05833,3.704155 0.77611,2.681103 1.4111,4.797763 1.90499,6.34998 0.56445,1.481662 1.12889,3.033879 1.69333,4.656652 0.49389,-1.622773 0.98777,-3.17499 1.48166,-4.656652 0.56445,-1.552217 1.23472,-3.668877 2.01083,-6.34998 0.28222,-0.846664 0.59972,-1.799161 0.9525,-2.857491 0.42333,-1.128885 0.84666,-2.187215 1.26999,-3.17499 0.49389,-0.987775 1.02305,-1.904994 1.5875,-2.751658 0.63499,-0.917219 1.30527,-1.587495 2.01082,-2.010827 1.55222,-1.05833 2.96333,-1.305274 4.23332,-0.740831 1.27,0.493887 2.36361,1.375829 3.28083,2.645825 0.91722,1.269996 1.69333,2.751658 2.32832,4.444986 0.70555,1.622773 1.27,3.104435 1.69333,4.444986 0.42333,1.411107 0.81139,2.645825 1.16416,3.704155 0.35278,0.987775 0.67028,1.904994 0.9525,2.751658 0.28222,0.846664 0.52916,1.65805 0.74083,2.434159 0.28222,0.776109 0.56444,1.587495 0.84667,2.434159 0.28222,-0.846664 0.52916,-1.65805 0.74083,-2.434159 0.28222,-0.776109 0.56444,-1.587495 0.84666,-2.434159 0.28222,-0.846664 0.59972,-1.763883 0.9525,-2.751658 0.35277,-1.05833 0.74083,-2.293048 1.16416,-3.704155 0.28222,-0.917219 0.56444,-1.975549 0.84667,-3.17499 0.35277,-1.199441 0.70555,-2.398881 1.05833,-3.598322 0.35277,-1.269996 0.70555,-2.469437 1.05833,-3.598322 0.42333,-1.128885 0.88193,-2.081382 1.37582,-2.857491 0.49389,-0.776109 1.16417,-1.411107 2.01083,-1.904994 0.84667,-0.564443 1.72861,-0.881942 2.64583,-0.952497 0.91722,-0.141111 1.83444,-0.03528 2.75165,0.317499 0.98778,0.352777 1.83445,1.05833 2.54,2.11666 z m 9.41908,9.842469 c 0,-1.622773 -0.0353,-3.351378 -0.10584,-5.185817 0,-1.834439 0.3175,-3.492489 0.9525,-4.974151 0.56444,-1.340551 1.48166,-2.293048 2.75166,-2.857491 1.34055,-0.634998 2.64582,-0.776109 3.91582,-0.423332 1.26999,0.211666 2.25777,0.59972 2.96332,1.164163 0.70555,0.564443 1.19944,1.234718 1.48166,2.010827 0.35278,0.705553 0.56445,1.552217 0.635,2.539992 0.0706,0.917219 0.14112,1.834439 0.21167,2.751658 0.70555,-1.269996 1.58749,-2.293048 2.64582,-3.069157 1.05833,-0.776109 2.15194,-1.411107 3.28083,-1.904994 1.12888,-0.493887 2.18721,-0.846664 3.17499,-1.05833 1.05833,-0.211666 1.86971,-0.317499 2.43416,-0.317499 2.6811,0 5.32692,0.59972 7.93747,1.799161 2.6811,1.128885 4.90359,2.751658 6.66748,4.868318 0.98777,1.269996 1.7286,2.610547 2.22249,4.021654 0.56445,1.340551 0.9525,2.751658 1.16417,4.23332 0.28222,1.481662 0.45861,2.998602 0.52916,4.550819 0.0706,1.481662 0.14111,2.998602 0.21167,4.550819 0.35277,4.515541 0.35277,8.995805 0,13.440791 -0.0706,0.917219 -0.10584,1.975549 -0.10584,3.17499 0,1.199441 -0.10583,2.398881 -0.3175,3.598322 -0.14111,1.128885 -0.4586,2.151938 -0.95249,3.069157 -0.42333,0.846664 -1.16417,1.375829 -2.2225,1.587495 -1.48166,0.352777 -2.71638,0.423332 -3.70415,0.211666 -0.91722,-0.141111 -1.65805,-0.45861 -2.22249,-0.952497 -0.56445,-0.493887 -0.98778,-1.128885 -1.27,-1.904994 -0.28222,-0.776109 -0.52916,-1.65805 -0.74083,-2.645825 -0.14111,-0.776109 -0.28222,-1.65805 -0.42333,-2.645825 -0.0706,-1.05833 -0.14112,-2.11666 -0.21167,-3.17499 0,-1.05833 -0.0353,-2.081382 -0.10583,-3.069157 v -2.857491 c 0,-1.340551 -0.0353,-2.822213 -0.10583,-4.444986 -0.0706,-1.622773 -0.0706,-3.139712 0,-4.550819 0,-3.316101 -0.88194,-5.820815 -2.64583,-7.514143 -1.69333,-1.763883 -4.02165,-2.504714 -6.98498,-2.222493 -2.25777,0.282221 -4.23332,1.199441 -5.92665,2.751658 -1.69333,1.481662 -2.50471,3.421934 -2.43415,5.820815 v 2.539992 c 0,0.776109 -0.0353,1.552217 -0.10584,2.328326 v 2.539992 3.069157 7.40831 c 0,2.539992 -0.3175,4.621374 -0.95249,6.244147 -0.56445,1.693328 -1.51695,2.857491 -2.8575,3.492489 -1.34055,0.634998 -2.92804,0.45861 -4.76248,-0.529165 -0.77611,-0.423332 -1.4111,-0.987775 -1.90499,-1.693328 -0.42333,-0.776109 -0.77611,-1.587495 -1.05833,-2.434159 -0.21167,-0.846664 -0.35278,-1.693328 -0.42334,-2.539992 -0.0705,-0.917219 -0.14111,-1.763883 -0.21166,-2.539992 -0.21167,-2.328326 -0.35278,-4.480264 -0.42333,-6.455813 v -6.561646 z"
       id="text1"
       style="font-size:105.833px;font-family:Jua;-inkscape-font-specification:Jua;fill:#ffffff;stroke-width:0.264583"
       aria-label="Countdown"
       sodipodi:nodetypes="ccscccccccsccsccccccccsccccsccccccccccscccsccccccccccscsscsccsccccccccccccsssccscscccccsccccscccsscscccccccsccccssccccsscccccscccscsccccsccscccccsccsscsccccccccccccccccccccccscscccccccccscsscccccccccccscccssccscccccscscccccccccccsccscccccsccccccccccccsccsscccsccccccccccsccccsccscccscccccccscscccccccccsccccccccccscccscccscccccsccccsccccscccsscscccccccsccccssccccsscccccscccscsccccsccs" /><path
       d="m 90.752873,45.657792 q 3.492489,-1.693328 7.302477,-2.434159 3.80999,-0.740831 7.51414,-0.317499 3.80999,0.423332 7.30248,2.010827 3.59832,1.587495 6.56165,4.444986 2.43416,2.434159 4.23332,5.926648 1.79916,3.386656 2.64582,6.667479 1.79916,5.820815 0.52917,11.747463 -1.27,5.926648 -4.33916,11.006632 -1.48166,2.328326 -3.70415,4.23332 -2.11666,1.799161 -4.55082,2.963324 -3.17499,1.481662 -6.87915,2.010827 -3.70415,0.634998 -7.19664,0.317499 -6.34998,-0.317499 -11.218298,-3.17499 -4.762485,-2.857491 -7.725809,-7.302477 -2.857491,-4.444986 -3.809988,-10.054135 -0.846664,-5.714982 0.740831,-11.64163 1.693328,-6.34998 4.868318,-10.265801 3.280823,-4.021654 7.725809,-6.138314 z m 3.17499,14.181622 q -1.587495,1.481662 -2.434159,3.704155 -0.846664,2.222493 -1.05833,4.656652 -0.211666,2.328326 0.317499,4.762485 0.634998,2.328326 1.904994,4.23332 1.05833,1.587495 3.809988,2.645825 2.751658,1.05833 5.714985,1.269996 3.38665,0.211666 5.92665,-1.799161 2.53999,-2.11666 3.80998,-5.185817 1.37583,-3.069157 1.27,-6.667479 -0.10583,-3.598322 -1.90499,-6.561646 -1.27,-2.11666 -3.59833,-3.069157 -2.22249,-1.05833 -4.76248,-1.05833 -2.43416,-0.105833 -4.86832,0.740831 -2.434159,0.740831 -4.127487,2.328326 z"
       id="text1-2"
       style="font-size:105.833px;font-family:Jua;-inkscape-font-specification:Jua;fill:#ffffff;stroke-width:0.264583"
       aria-label="o" /><path
       d="m 123.11103,38.634997 c 8.62368,-1.6e-4 12.62472,10.70208 6.11591,16.35921 -2.87908,-5.66754 -7.48504,-10.27331 -13.15269,-13.15216 1.70793,-1.96525 4.22877,-3.20705 7.03678,-3.20705 z"
       id="path11"
       sodipodi:nodetypes="cccc"
       style="fill:#ffffff;fill-opacity:1;stroke-width:3.7291" /><path
       d="m 82.525502,38.644817 c -5.31369,-0.24809 -9.757486,3.99311 -9.757496,9.31261 0,2.80802 1.241804,5.32885 3.207022,7.03678 2.879062,-5.66754 7.484998,-10.27331 13.152615,-13.15216 -1.671351,-1.92317 -4.056986,-3.07846 -6.602141,-3.19723 z"
       id="path9"
       sodipodi:nodetypes="csccc"
       style="fill:#ffffff;fill-opacity:1;stroke-width:3.7291" /><rect
       style="fill:#ffffff;fill-opacity:1;stroke-width:0.264583"
       id="rect14"
       width="7.9705734"
       height="3.9852867"
       x="-150.31229"
       y="28.632797"
       ry="1.9926434"
       transform="rotate(-130.45084)" /><rect
       style="fill:#ffffff;fill-opacity:1;stroke-width:0.264583"
       id="rect14-8"
       width="7.9705729"
       height="3.9852865"
       x="-8.5691643"
       y="124.27223"
       ry="1.9926432"
       transform="rotate(-45.420823)" /><rect
       style="fill:#ffffff;fill-opacity:1;stroke-width:0.264583"
       id="rect15"
       width="16.20573"
       height="3.8364582"
       x="94.610924"
       y="34.851986"
       ry="1.9182291" /><rect
       style="fill:#ffffff;fill-opacity:1;stroke-width:0.264583"
       id="rect16"
       width="7.5736976"
       height="6.1515622"
       x="98.877441"
       y="37.678547"
       ry="0" /><rect
       style="fill:#ffffff;fill-opacity:1;stroke-width:0.272359"
       id="rect37"
       width="2.0703101"
       height="10.929311"
       x="118.06992"
       y="23.215612"
       ry="1.0351551"
       transform="rotate(18.882493)" /><rect
       style="fill:#ffffff;fill-opacity:1;stroke-width:0.264583"
       id="rect38"
       width="5.8465204"
       height="1.6370258"
       x="112.35104"
       y="36.751488"
       ry="0.81851292"
       transform="rotate(16.75106)" /></g></svg>
